<?xml version="1.0" standalone="no"?>
<!DOCTYPE svg PUBLIC "-//W3C//DTD SVG 20010904//EN"
 "http://www.w3.org/TR/2001/REC-SVG-20010904/DTD/svg10.dtd">
<svg version="1.0" xmlns="http://www.w3.org/2000/svg"
 width="300.000000pt" height="300.000000pt" viewBox="0 0 300.000000 300.000000"
 preserveAspectRatio="xMidYMid meet">
<metadata>
Created by potrace 1.11, written by Peter Selinger 2001-2013
</metadata>
<g transform="translate(0.000000,300.000000) scale(0.100000,-0.100000)"
fill="#000000" stroke="none">
<path d="M1317 2949 c-482 -59 -910 -364 -1130 -804 -294 -589 -143 -1333 356
-1753 321 -270 699 -385 1128 -343 296 29 600 169 821 379 215 205 355 445
423 724 39 161 48 273 36 431 -19 236 -63 394 -162 588 -76 147 -161 260 -287
381 -268 257 -595 393 -967 403 -77 2 -175 0 -218 -6z m987 -800 c40 -19 46
-56 46 -289 0 -228 -6 -269 -43 -289 -16 -9 -230 -11 -835 -9 l-814 3 -19 24
c-18 21 -19 42 -19 268 l0 245 29 29 29 29 801 0 c577 0 807 -3 825 -11z
m-1224 -739 c-29 -56 -25 -96 20 -215 29 -76 40 -120 40 -160 l0 -54 49 -3 48
-3 -91 -157 c-50 -87 -94 -158 -97 -158 -7 0 -169 284 -176 309 -5 19 -1 21
50 21 50 0 55 2 61 24 9 35 -2 80 -42 176 -38 91 -46 175 -21 222 18 34 28 38
107 38 l72 0 -20 -40z m428 -7 c-26 -58 -21 -99 28 -217 27 -67 36 -102 36
-147 l0 -58 49 -3 49 -3 -91 -158 c-84 -144 -93 -156 -105 -138 -8 10 -50 81
-94 158 -89 154 -89 150 4 152 l38 1 -4 63 c-3 41 -15 87 -38 137 -44 100 -52
192 -20 233 20 25 27 27 95 27 l74 0 -21 -47z m430 1 c-25 -59 -21 -91 26
-211 27 -70 36 -107 36 -152 l0 -60 50 -3 50 -3 -91 -158 c-84 -144 -93 -156
-105 -138 -8 10 -50 81 -94 158 -89 153 -89 150 3 152 l37 1 0 53 c0 37 -11
77 -36 137 -47 112 -56 202 -24 243 20 25 27 27 95 27 l74 0 -21 -46z"/>
<path d="M759 2045 c-1 -3 -1 -17 -2 -32 l-1 -28 152 -3 152 -3 0 36 0 35
-150 0 c-82 0 -150 -2 -151 -5z"/>
<path d="M943 1781 c-94 -3 -174 -9 -178 -12 -3 -4 -7 -30 -8 -58 l-2 -51 733
0 732 0 0 43 c0 24 -6 52 -14 63 -14 18 -32 19 -553 20 -296 0 -615 -2 -710
-5z"/>
</g>
</svg>
